<svg width="1124" height="254" viewBox="0 0 1124 254" fill="none" xmlns="http://www.w3.org/2000/svg">
<g clip-path="url(#clip0_654_81)">
<path fill-rule="evenodd" clip-rule="evenodd" d="M955.911 18.7451H974.959V33.4151L969.477 37.4466L955.911 18.7451Z" fill="#FADF1D" stroke="#FADF1D" stroke-width="4"/>
<path fill-rule="evenodd" clip-rule="evenodd" d="M938.262 53.7613L949.683 43.8901L954.798 66.514L949.683 70.1716L938.262 71.4528V53.7613Z" fill="#FADF1D" stroke="#FADF1D" stroke-width="4"/>
<path fill-rule="evenodd" clip-rule="evenodd" d="M953.064 73.9806L974.655 66.1228L973.458 87.7216L953.064 73.9806Z" fill="#FADF1D" stroke="#FADF1D" stroke-width="4"/>
<path fill-rule="evenodd" clip-rule="evenodd" d="M938.052 104.898L964.879 100.782L957.927 122.349L955.12 108.77L938.052 104.898Z" fill="#FADF1D" stroke="#FADF1D" stroke-width="4"/>
<path fill-rule="evenodd" clip-rule="evenodd" d="M955.415 128.981L973.763 123.032V139.049L954.448 134.331L955.415 128.981Z" fill="#FADF1D" stroke="#FADF1D" stroke-width="4"/>
<path fill-rule="evenodd" clip-rule="evenodd" d="M939.025 134.873L957.084 140.782L948.055 147.612L940.727 146.331L939.025 136.003V134.873Z" fill="#FADF1D" stroke="#FADF1D" stroke-width="4"/>
<path fill-rule="evenodd" clip-rule="evenodd" d="M944.435 176.213L951.948 171.593L965.497 180.244L955.957 191.004L944.435 176.213Z" fill="#FADF1D" stroke="#FADF1D" stroke-width="4"/>
<path fill-rule="evenodd" clip-rule="evenodd" d="M919.392 171.255L932.952 163.65L940.728 161.634H947.069L955.984 165.513L937.688 172.96L919.392 171.255Z" fill="#FADF1D" stroke="#FADF1D" stroke-width="4"/>
<path fill-rule="evenodd" clip-rule="evenodd" d="M924.267 188.702L937.928 192.364L939.448 198.483L920.145 200.983L911.357 192.364L924.267 188.702Z" fill="#FADF1D" stroke="#FADF1D" stroke-width="4"/>
<path fill-rule="evenodd" clip-rule="evenodd" d="M894.503 170.323L901.733 160.669L917.391 175.851L894.503 170.323Z" fill="#FADF1D" stroke="#FADF1D" stroke-width="4"/>
<path fill-rule="evenodd" clip-rule="evenodd" d="M886.279 171.925L896.572 177.371L877.986 185.132L867.158 170.681L886.279 171.925Z" fill="#FADF1D" stroke="#FADF1D" stroke-width="4"/>
<path fill-rule="evenodd" clip-rule="evenodd" d="M938.231 18.554L949.64 20.6691L961.721 40.4542L949.976 36.5551L938.231 40.4542V18.554Z" fill="#E30613" stroke="#E30613" stroke-width="4"/>
<path fill-rule="evenodd" clip-rule="evenodd" d="M956.757 45.9211H970.637L974.548 40.9958V55.7309L962.935 65.7404L956.757 57.8354V45.9211Z" fill="#E30613" stroke="#E30613" stroke-width="4"/>
<path fill-rule="evenodd" clip-rule="evenodd" d="M939.803 77.3948L953.686 79.9817L965.34 94.3998L941.678 100.178L938.284 88.7865L939.803 77.3948Z" fill="#E30613" stroke="#E30613" stroke-width="4"/>
<path fill-rule="evenodd" clip-rule="evenodd" d="M971.939 95.4456H975.25L974.324 117.205L963.092 118.679L971.939 95.4456Z" fill="#E30613" stroke="#E30613" stroke-width="4"/>
<path fill-rule="evenodd" clip-rule="evenodd" d="M938.262 110.321L950.352 113.951L945.354 121.399L950.352 128.229L948.067 132.371L938.262 129.185V110.321Z" fill="#E30613" stroke="#E30613" stroke-width="4"/>
<path fill-rule="evenodd" clip-rule="evenodd" d="M937.505 154.774L958.793 147.758L957.924 162.644L949.606 156.97L937.505 154.774Z" fill="#E30613" stroke="#E30613" stroke-width="4"/>
<path fill-rule="evenodd" clip-rule="evenodd" d="M964.395 143.121L975.669 147.653L970.032 173.198H960.711L964.395 143.121Z" fill="#E30613" stroke="#E30613" stroke-width="4"/>
<path fill-rule="evenodd" clip-rule="evenodd" d="M915.189 180.222L936.602 177.143L950.921 190.53L945.432 195.798L936.602 186.47L921.764 185.341L915.189 180.222Z" fill="#E30613" stroke="#E30613" stroke-width="4"/>
<path fill-rule="evenodd" clip-rule="evenodd" d="M904.949 178.066L914.587 185.054L904.949 190.404L913.789 199.997L897.203 197.331L883.539 189.031L904.949 178.066Z" fill="#E30613" stroke="#E30613" stroke-width="4"/>
<path fill-rule="evenodd" clip-rule="evenodd" d="M865.316 166.29L894.181 148.339L896.056 158.864L889.141 169.006L879.554 164.658L865.316 166.29Z" fill="#E30613" stroke="#E30613" stroke-width="4"/>
<path fill-rule="evenodd" clip-rule="evenodd" d="M1089.19 45.4409L1100.9 47.2944L1114.52 45.4409L1085.65 64.0881L1083.4 55.506L1089.19 45.4409Z" fill="#FADF1D" stroke="#FADF1D" stroke-width="2"/>
<path fill-rule="evenodd" clip-rule="evenodd" d="M1068.81 37.829L1091.67 23.5404L1077.05 17.7383L1060.69 15.7383L1069.87 23.5404L1060.69 30.3007L1068.81 37.829Z" fill="#FADF1D" stroke="#FADF1D" stroke-width="2"/>
<path fill-rule="evenodd" clip-rule="evenodd" d="M1055.95 35.425L1035.46 45.8077H1029.25L1020.4 41.8749L1039.48 33.2146L1055.95 35.425Z" fill="#FADF1D" stroke="#FADF1D" stroke-width="2"/>
<path fill-rule="evenodd" clip-rule="evenodd" d="M1013.9 37.6L1027.85 24.1985L1039.37 30.8992L1013.9 37.6Z" fill="#FADF1D" stroke="#FADF1D" stroke-width="2"/>
<path fill-rule="evenodd" clip-rule="evenodd" d="M1018.81 61.3175L1027.44 60.2686L1033 57.8657L1029.33 65.6974L1033.77 75.0191L1029.33 85.0234L1018.81 61.3175Z" fill="#FADF1D" stroke="#FADF1D" stroke-width="2"/>
<path fill-rule="evenodd" clip-rule="evenodd" d="M1015.36 96.842L1030.63 87.9456V98.6507L1036.79 99.3902L1038.28 103.752L1030.63 109.679L1019.1 98.6507L1015.36 96.842Z" fill="#FADF1D" stroke="#FADF1D" stroke-width="2"/>
<path fill-rule="evenodd" clip-rule="evenodd" d="M1035.99 87.4086V78.8036L1043.35 72.8577L1062.07 90.2285V94.703L1045.94 87.4086H1035.99Z" fill="#FADF1D" stroke="#FADF1D" stroke-width="2"/>
<path fill-rule="evenodd" clip-rule="evenodd" d="M1068.74 99.2092L1087.31 115.65L1065.98 125.901H1062.91L1072.02 110.169L1065.98 102.704L1068.74 99.2092Z" fill="#FADF1D" stroke="#FADF1D" stroke-width="2"/>
<path fill-rule="evenodd" clip-rule="evenodd" d="M1089.69 109.32L1094.28 99.2759L1112.71 114.202V120.026L1103.13 122.238L1089.69 109.32Z" fill="#FADF1D" stroke="#FADF1D" stroke-width="2"/>
<path fill-rule="evenodd" clip-rule="evenodd" d="M1088.42 146.45L1102.8 139.958L1094.31 169.534L1087.36 163.813L1084.18 163.054L1088.42 146.45Z" fill="#FADF1D" stroke="#FADF1D" stroke-width="2"/>
<path fill-rule="evenodd" clip-rule="evenodd" d="M1090.42 178.227L1100.56 172.074V161.186L1112.83 171.16V182.46L1093.34 195.108L1090.42 178.227Z" fill="#FADF1D" stroke="#FADF1D" stroke-width="2"/>
<path fill-rule="evenodd" clip-rule="evenodd" d="M1049.82 184.837L1058.85 176.671L1083.85 184.837L1088.87 190.375L1075.31 187.439L1049.82 184.837Z" fill="#FADF1D" stroke="#FADF1D" stroke-width="2"/>
<path fill-rule="evenodd" clip-rule="evenodd" d="M1033.1 170.471L1047.62 186.565L1043.01 188.244L1050.31 199.598L1033.1 196.284V170.471Z" fill="#FADF1D" stroke="#FADF1D" stroke-width="2"/>
<path fill-rule="evenodd" clip-rule="evenodd" d="M1015.68 165.011L1030.2 151.013V180.356L1015.68 165.011Z" fill="#FADF1D" stroke="#FADF1D" stroke-width="2"/>
<path fill-rule="evenodd" clip-rule="evenodd" d="M1080.12 35.1715L1096.41 25.823L1109.79 38.838L1091.89 42.0837L1080.12 35.1715Z" fill="#E30613" stroke="#E30613" stroke-width="2"/>
<path fill-rule="evenodd" clip-rule="evenodd" d="M1059.54 40.4324L1085.36 42.6964L1078.91 54.6434L1059.54 40.4324Z" fill="#E30613" stroke="#E30613" stroke-width="2"/>
<path fill-rule="evenodd" clip-rule="evenodd" d="M1055.25 37.6938L1059.35 48.2918L1046.58 52.0491L1041.94 65.3451L1035.91 71.0456V50.8494L1055.25 37.6938Z" fill="#E30613" stroke="#E30613" stroke-width="2"/>
<path fill-rule="evenodd" clip-rule="evenodd" d="M1052.49 30.5018L1061.66 24.3827L1057.07 18.2094L1044.39 16.7183L1031.27 23.61L1049.32 31.9902L1052.49 30.5018Z" fill="#E30613" stroke="#E30613" stroke-width="2"/>
<path fill-rule="evenodd" clip-rule="evenodd" d="M1012.22 42.1399L1032.4 51.2757L1026.68 56.9724L1007.49 55.9049L1012.22 42.1399Z" fill="#E30613" stroke="#E30613" stroke-width="2"/>
<path fill-rule="evenodd" clip-rule="evenodd" d="M1005.26 63.1424L1013.58 59.7349L1023.02 87.9934H1010.79L1005.26 63.1424Z" fill="#E30613" stroke="#E30613" stroke-width="2"/>
<path fill-rule="evenodd" clip-rule="evenodd" d="M1035.43 94.017L1040.93 89.3315L1061.87 98.4679L1051.01 107.313L1035.43 94.017Z" fill="#E30613" stroke="#E30613" stroke-width="2"/>
<path fill-rule="evenodd" clip-rule="evenodd" d="M1038.6 107.166L1051.82 111.151L1066 109.159L1057.18 123.305L1037.42 115.235L1038.6 107.166Z" fill="#E30613" stroke="#E30613" stroke-width="2"/>
<path fill-rule="evenodd" clip-rule="evenodd" d="M1066.62 91.0797L1069.04 88.0947L1089.04 97.3306L1084.37 107.794L1066.62 91.0797Z" fill="#E30613" stroke="#E30613" stroke-width="2"/>
<path fill-rule="evenodd" clip-rule="evenodd" d="M1069.45 127.793L1092.57 120.572L1091.19 142.508L1069.45 127.793Z" fill="#E30613" stroke="#E30613" stroke-width="2"/>
<path fill-rule="evenodd" clip-rule="evenodd" d="M1095.66 127.678H1109.5L1117.09 121.346L1122.27 131.92L1105.49 146.935L1106.92 135.066L1095.66 139.068V127.678Z" fill="#E30613" stroke="#E30613" stroke-width="2"/>
<path fill-rule="evenodd" clip-rule="evenodd" d="M1101.78 155.481L1123.51 137.291V162.396L1116.62 168.903L1101.78 155.481Z" fill="#E30613" stroke="#E30613" stroke-width="2"/>
<path fill-rule="evenodd" clip-rule="evenodd" d="M1059.36 172.282L1072.56 166.349H1085.61L1089.96 172.282L1083.26 182.041L1059.36 172.282Z" fill="#E30613" stroke="#E30613" stroke-width="2"/>
<path fill-rule="evenodd" clip-rule="evenodd" d="M1033.22 161.153L1057.75 168.278L1049.05 179.374L1033.22 161.153Z" fill="#E30613" stroke="#E30613" stroke-width="2"/>
<path fill-rule="evenodd" clip-rule="evenodd" d="M1048.82 191.351L1072.91 190.493L1088.92 194.58L1074.42 200.857H1058.71L1048.82 191.351Z" fill="#E30613" stroke="#E30613" stroke-width="2"/>
<path fill-rule="evenodd" clip-rule="evenodd" d="M1008.72 180.686L1016.17 170.511L1019.88 179.65L1028.79 182.91L1030.16 195.467L1008.72 180.686Z" fill="#E30613" stroke="#E30613" stroke-width="2"/>
<path fill-rule="evenodd" clip-rule="evenodd" d="M1008.41 175.138L1011.32 164.565L1027.51 148.417L1021.89 147.199L995.377 162.362L998.437 168.835L1002.99 172.996L1008.41 175.138Z" fill="#E30613" stroke="#E30613" stroke-width="2"/>
</g>
<path d="M14.58 191V59.42H66.96C92.88 59.42 108.72 72.92 108.72 94.88C108.72 109.46 102.24 119.9 89.82 125.12C103.68 129.62 110.7 140.06 110.7 155.36C110.7 177.86 95.04 191 67.86 191H14.58ZM64.98 79.76H37.62V115.58H65.52C78.12 115.58 85.14 108.92 85.14 97.22C85.14 85.88 77.94 79.76 64.98 79.76ZM66.96 135.02H37.62V170.66H66.96C79.92 170.66 87.12 164.36 87.12 152.48C87.12 141.32 79.74 135.02 66.96 135.02ZM155.046 193.34C136.146 193.34 124.626 182.36 124.626 165.62C124.626 149.24 136.506 138.98 157.566 137.36L184.206 135.38V133.4C184.206 121.34 177.006 116.48 165.846 116.48C152.886 116.48 145.686 121.88 145.686 131.24H126.966C126.966 111.98 142.806 99.38 166.926 99.38C190.866 99.38 205.626 112.34 205.626 137V191H186.366L184.746 177.86C180.966 187.04 168.906 193.34 155.046 193.34ZM162.246 176.78C175.746 176.78 184.386 168.68 184.386 155V150.32L165.846 151.76C152.166 153.02 146.946 157.52 146.946 164.72C146.946 172.82 152.346 176.78 162.246 176.78ZM282.999 101.72V122.06H274.899C259.059 122.06 249.159 130.52 249.159 147.8V191H227.199V102.26H247.899L249.159 115.22C252.939 106.4 261.399 100.46 273.279 100.46C276.339 100.46 279.399 100.82 282.999 101.72ZM289.655 146.36C289.655 118.82 307.835 99.38 334.115 99.38C358.415 99.38 374.975 112.88 377.315 134.3H355.355C352.835 124.22 345.455 119 335.015 119C320.975 119 311.615 129.62 311.615 146.36C311.615 163.1 320.255 173.54 334.295 173.54C345.275 173.54 353.015 168.14 355.355 158.42H377.495C374.795 179.12 357.515 193.34 334.295 193.34C307.295 193.34 289.655 174.62 289.655 146.36ZM433.62 193.34C407.16 193.34 388.62 174.08 388.62 146.54C388.62 118.64 406.8 99.38 432.9 99.38C459.54 99.38 476.46 117.2 476.46 144.92V151.58L409.5 151.76C411.12 167.42 419.4 175.34 433.98 175.34C446.04 175.34 453.96 170.66 456.48 162.2H476.82C473.04 181.64 456.84 193.34 433.62 193.34ZM433.08 117.38C420.12 117.38 412.2 124.4 410.04 137.72H454.68C454.68 125.48 446.22 117.38 433.08 117.38ZM516.175 191H494.395V57.08H516.175V191ZM533.991 146.36C533.991 118.64 553.971 99.56 581.511 99.56C609.051 99.56 629.031 118.64 629.031 146.36C629.031 174.08 609.051 193.16 581.511 193.16C553.971 193.16 533.991 174.08 533.991 146.36ZM555.951 146.36C555.951 162.56 566.391 173.54 581.511 173.54C596.631 173.54 607.071 162.56 607.071 146.36C607.071 130.16 596.631 119.18 581.511 119.18C566.391 119.18 555.951 130.16 555.951 146.36ZM668.398 191H646.438V102.08H666.778L668.578 113.6C674.158 104.6 684.958 99.38 697.018 99.38C719.338 99.38 730.858 113.24 730.858 136.28V191H708.898V141.5C708.898 126.56 701.518 119.36 690.178 119.36C676.678 119.36 668.398 128.72 668.398 143.12V191ZM778.894 193.34C759.994 193.34 748.474 182.36 748.474 165.62C748.474 149.24 760.354 138.98 781.414 137.36L808.054 135.38V133.4C808.054 121.34 800.854 116.48 789.694 116.48C776.734 116.48 769.534 121.88 769.534 131.24H750.814C750.814 111.98 766.654 99.38 790.774 99.38C814.714 99.38 829.474 112.34 829.474 137V191H810.214L808.594 177.86C804.814 187.04 792.754 193.34 778.894 193.34ZM786.094 176.78C799.594 176.78 808.234 168.68 808.234 155V150.32L789.694 151.76C776.014 153.02 770.794 157.52 770.794 164.72C770.794 172.82 776.194 176.78 786.094 176.78Z" fill="white"/>
<defs>
<clipPath id="clip0_654_81">
<rect width="262" height="187" fill="white" transform="translate(862 15)"/>
</clipPath>
</defs>
</svg>
