<?xml version="1.0" encoding="UTF-8"?>
<svg width="738px" height="527px" viewBox="0 0 738 527" version="1.1" xmlns="http://www.w3.org/2000/svg" xmlns:xlink="http://www.w3.org/1999/xlink">
    <!-- Generator: Sketch 50.2 (55047) - http://www.bohemiancoding.com/sketch -->
    <title>BarcelonaJS Logo (SVG)</title>
    <desc>BarcelonaJS Logo</desc>
    <defs></defs>
    <g id="Page-1" stroke="none" stroke-width="1" fill="none" fill-rule="evenodd">
        <g id="Group-5" transform="translate(9.000000, 2.000000)">
            <g id="Group-2" transform="translate(5.000000, 8.000000)" fill="#FADF1D" stroke="#FADF1D" stroke-width="4">
                <polygon id="Path-2" points="250.527357 0.554820869 304.181138 0.554820869 304.181138 41.8974271 288.740937 53.2588824"></polygon>
                <polygon id="Path-4" points="200.814682 99.2369134 232.987375 71.4182471 247.393743 135.176367 232.987375 145.484108 200.814682 149.094876"></polygon>
                <polygon id="Path-5" points="242.510565 156.218534 303.326238 134.073714 299.955576 194.942913"></polygon>
                <polygon id="Path-8" points="200.222828 243.349534 275.790499 231.749502 256.20732 292.52847 248.300641 254.261364"></polygon>
                <polygon id="Path-10" points="249.132601 311.218515 300.813535 294.453907 300.813535 339.592331 246.408849 326.296263"></polygon>
                <polygon id="Path-11" points="202.964932 327.824072 253.832258 344.477038 228.398595 363.726821 207.757878 360.114524 202.964932 331.008155"></polygon>
                <polygon id="Path-14" points="218.201731 444.327545 239.366245 431.306758 277.530886 455.689001 250.65888 486.012723"></polygon>
                <polygon id="Path-15" points="147.659466 430.35398 185.856223 408.92336 207.760937 403.240339 225.622081 403.240339 250.732289 414.17205 199.195877 435.160691"></polygon>
                <polygon id="Path-17" points="161.392925 479.52527 199.874139 489.845246 204.154757 507.090066 149.782187 514.134199 125.029845 489.845246"></polygon>
                <polygon id="Path-19" points="77.5545912 427.729635 97.9207913 400.521175 142.026912 443.307477"></polygon>
                <polygon id="Path-20" points="54.3881725 432.242713 83.3813707 447.592683 31.029057 469.462223 0.529460438 428.737469"></polygon>
            </g>
            <g id="Group" transform="translate(0.000000, 8.000000)" fill="#E30613" stroke="#E30613" stroke-width="4">
                <polygon id="Path" points="205.726562 0.015625 237.863281 5.9765625 271.890625 61.734375 238.808594 50.7460938 205.726562 61.734375"></polygon>
                <polygon id="Path-3" points="257.908537 77.1410315 297.006075 77.1410315 308.021899 63.2607558 308.021899 104.786883 275.312409 132.99553 257.908537 110.717657"></polygon>
                <polygon id="Path-6" points="210.151886 165.839603 249.25707 173.129959 282.085849 213.762952 215.434221 230.047348 205.874326 197.943475"></polygon>
                <polygon id="Path-7" points="300.674958 216.709987 310.002393 216.709987 307.393341 278.0334 275.754388 282.187084"></polygon>
                <polygon id="Path-9" points="205.813153 258.630683 239.86999 268.861958 225.789371 289.852128 239.86999 309.100381 233.431476 320.772292 205.813153 311.793546"></polygon>
                <polygon id="Path-12" points="203.679725 383.909501 263.643556 364.135155 261.195086 406.087967 237.765621 390.098734"></polygon>
                <polygon id="Path-13" points="279.423271 351.068487 311.179983 363.841522 295.301627 435.83207 269.046709 435.83207"></polygon>
                <polygon id="Path-16" points="140.822386 455.624769 201.136436 446.948832 241.469678 484.674552 226.008067 499.52137 201.136436 473.235101 159.341145 470.052547"></polygon>
                <polygon id="Path-18" points="111.977534 449.548707 139.12635 469.241998 111.977534 484.319746 136.878222 511.353861 90.158462 503.84328 51.6696013 480.451284"></polygon>
                <polygon id="Path-21" points="0.340415094 416.363592 81.6446348 365.774606 86.9269698 395.434595 67.4493154 424.016402 40.4442571 411.763342"></polygon>
            </g>
            <g id="Group-3" transform="translate(418.000000, 0.000000)" fill="#FADF1D" stroke="#FADF1D" stroke-width="2">
                <polygon id="Path-22" points="212.944237 83.788353 245.924452 89.0118892 284.293028 83.788353 202.970071 136.339499 196.625115 112.153495"></polygon>
                <polygon id="Path-23" points="155.534632 62.3365792 219.939247 22.068676 178.751718 5.71720548 132.66722 0.0808389445 158.523031 22.068676 132.66722 41.1204884"></polygon>
                <polygon id="Path-24" points="119.322633 55.5618484 61.6064862 84.8219693 44.115111 84.8219693 19.1773854 73.7387068 72.9100275 49.3324233"></polygon>
                <polygon id="Path-25" points="0.872672793 61.6911467 40.1624145 23.9233318 72.6081068 42.8072392"></polygon>
                <polygon id="Path-26" points="14.7117318 128.531152 39.019429 125.575102 54.6638506 118.803452 44.3430919 140.874471 56.8373715 167.144653 44.3430919 195.338809"></polygon>
                <polygon id="Path-27" points="4.98711253 228.645592 48.0046506 203.57385 48.0046506 233.742814 65.3327422 235.826991 69.5426875 248.117936 48.0046506 264.823702 15.501963 233.742814"></polygon>
                <polygon id="Path-28" points="63.102226 202.061166 63.102226 177.810464 83.8238447 161.053865 136.5583 210.00815 136.5583 222.617961 91.113073 202.061166"></polygon>
                <polygon id="Path-29" points="155.331298 235.317115 207.663706 281.651159 147.579946 310.538501 138.910509 310.538501 164.57993 266.203911 147.579946 245.166508"></polygon>
                <polygon id="Path-30" points="214.341391 263.811651 227.287011 235.505045 279.194265 277.569068 279.194265 293.982155 252.209332 300.217742"></polygon>
                <polygon id="Path-31" points="210.769176 368.45028 251.277383 350.15635 227.354789 433.504948 207.790019 417.382999 198.820202 415.244907"></polygon>
                <polygon id="Path-32" points="216.422487 458.003656 244.969397 440.663242 244.969397 409.97824 279.545479 438.086133 279.545479 469.934145 224.645205 505.577732"></polygon>
                <polygon id="Path-33" points="102.042294 476.631856 127.476032 453.619645 197.905197 476.631856 212.032313 492.237767 173.842426 483.965756"></polygon>
                <polygon id="Path-34" points="54.9426651 436.145214 95.8513795 481.502637 82.8703298 486.234782 103.417882 518.230674 54.9426651 508.891158"></polygon>
                <polygon id="Path-35" points="5.89595546 420.759581 46.7908062 381.309637 46.7908062 464.005101"></polygon>
            </g>
            <g id="Group-4" transform="translate(366.000000, 2.000000)" fill="#E30613" stroke="#E30613" stroke-width="2">
                <polygon id="Path-36" points="239.40113 52.8470973 285.277672 26.5014354 322.98387 63.1801792 272.547709 72.3271441"></polygon>
                <polygon id="Path-37" points="181.423113 67.6735603 254.155193 74.0539457 235.986037 107.722725"></polygon>
                <polygon id="Path-38" points="169.353987 59.9560975 180.89013 89.8231406 144.927678 100.411931 131.861906 137.882446 114.872705 153.9474 114.872705 97.0307271"></polygon>
                <polygon id="Path-39" points="161.557963 39.6873599 187.410693 22.4424505 174.484328 5.04504039 138.766031 0.842797184 101.806932 20.2650785 152.652843 43.881901"></polygon>
                <polygon id="Path-40" points="48.1451492 72.4858065 104.983261 98.2322483 88.8767163 114.286419 34.8205877 111.277995"></polygon>
                <polygon id="Path-41" points="28.5280057 131.674587 51.9576682 122.07166 78.5544172 201.709407 44.1046492 201.709407"></polygon>
                <polygon id="Path-42" points="113.512521 218.684744 129.013684 205.480334 187.985267 231.228317 157.405013 256.155259"></polygon>
                <polygon id="Path-43" points="122.456152 255.740888 159.692525 266.97203 199.613835 261.356459 174.7901 301.223085 119.133484 278.481987"></polygon>
                <polygon id="Path-44" points="201.380687 210.406571 208.197009 201.994383 264.517543 228.02272 251.376291 257.510822"></polygon>
                <polygon id="Path-45" points="209.330752 313.872947 274.480926 293.521027 270.572902 355.34083"></polygon>
                <polygon id="Path-46" points="283.164227 313.54792 322.148967 313.54792 343.52218 295.70379 358.116041 325.501515 310.863911 367.816625 314.884385 334.368125 283.164227 345.645479"></polygon>
                <polygon id="Path-47" points="300.419919 391.902503 361.632801 340.6376 361.632801 411.390252 342.223613 429.727313"></polygon>
                <polygon id="Path-48" points="180.916317 439.250138 218.098776 422.530509 254.85454 422.530509 267.12392 439.250138 248.235391 466.752649"></polygon>
                <polygon id="Path-49" points="107.2985 407.887355 176.382886 427.965082 151.874935 459.236981"></polygon>
                <polygon id="Path-50" points="151.224881 492.990483 219.089261 490.570496 264.197137 502.089695 223.356201 519.778243 179.084768 519.778243"></polygon>
                <polygon id="Path-51" points="38.2757312 462.933969 59.2730835 434.259204 69.7047518 460.014889 94.8119227 469.201904 98.6798965 504.588243"></polygon>
                <polygon id="Path-52" points="37.4038582 447.297249 45.6080911 417.501065 91.2150613 371.994222 75.3811691 368.560644 0.69430612 411.293206 9.31445018 429.536302 22.1306758 441.261916"></polygon>
            </g>
        </g>
    </g>
</svg>