<svg viewBox="0 0 309 150" fill="none" xmlns="http://www.w3.org/2000/svg">
  <path fill-rule="evenodd" clip-rule="evenodd"
    d="M0 15C0 6.71573 6.71573 0 15 0H135C143.284 0 150 6.71573 150 15V71H120V80H150V135C150 143.284 143.284 150 135 150H15C6.71573 150 0 143.284 0 135V15ZM54.4 110C65.6 110 69.2 103 69.2 94.6V86.3H80.2V94.6C80.2 103 83.8 110 95 110C104.3 110 110.3 104.1 110.3 94.9C110.3 85.2 104.5 79.5 93.1 79.5H87.2V68.5H93.1C104.5 68.5 110.3 62.8 110.3 53.1C110.3 43.9 104.3 38 95 38C83.8 38 80.2 45 80.2 53.4V61.7H69.2V53.4C69.2 45 65.6 38 54.4 38C45.1 38 39.1 43.9 39.1 53.1C39.1 62.8 44.9 68.5 56.3 68.5H62.2V79.5H56.3C44.9 79.5 39.1 85.2 39.1 94.9C39.1 104.1 45.1 110 54.4 110ZM87.2 53.2C87.2 48.1 89.8 44.9 95 44.9C99.7 44.9 103.2 47.2 103.2 53.1C103.2 58.8 100.2 61.7 93.1 61.7H87.2V53.2ZM56.3 61.7C49.2 61.7 46.2 58.8 46.2 53.1C46.2 47.2 49.7 44.9 54.4 44.9C59.6 44.9 62.2 48.1 62.2 53.2V61.7H56.3ZM69.2 79.5V68.5H80.2V79.5H69.2ZM54.4 103.1C49.7 103.1 46.2 100.8 46.2 94.9C46.2 89.2 49.2 86.3 56.3 86.3H62.2V94.8C62.2 99.9 59.6 103.1 54.4 103.1ZM87.2 94.8V86.3H93.1C100.2 86.3 103.2 89.2 103.2 94.9C103.2 100.8 99.7 103.1 95 103.1C89.8 103.1 87.2 99.9 87.2 94.8Z"
    fill="black" />
  <path fill-rule="evenodd" clip-rule="evenodd"
    d="M159 15C159 6.71573 165.716 0 174 0H294C302.284 0 309 6.71573 309 15V135C309 143.284 302.284 150 294 150H174C165.716 150 159 143.284 159 135V80H189V71H159V15ZM260.939 38.9062V110H251.467L215.676 55.166V110H206.252V38.9062H215.676L251.613 93.8867V38.9062H260.939Z"
    fill="black" />
</svg>
