<svg width="979" height="254" viewBox="0 0 979 254" fill="none" xmlns="http://www.w3.org/2000/svg">
<path fill-rule="evenodd" clip-rule="evenodd" d="M0 77C0 68.7157 6.71573 62 15 62H135C143.284 62 150 68.7157 150 77V133H120V142H150V197C150 205.284 143.284 212 135 212H15C6.71573 212 0 205.284 0 197V77ZM54.4 172C45.1 172 39.1 166.1 39.1 156.9C39.1 147.2 44.9 141.5 56.3 141.5H62.2V130.5H56.3C44.9 130.5 39.1 124.8 39.1 115.1C39.1 105.9 45.1 100 54.4 100C65.6 100 69.2 107 69.2 115.4V123.7H80.2V115.4C80.2 107 83.8 100 95 100C104.3 100 110.3 105.9 110.3 115.1C110.3 124.8 104.5 130.5 93.1 130.5H87.2V141.5H93.1C104.5 141.5 110.3 147.2 110.3 156.9C110.3 166.1 104.3 172 95 172C83.8 172 80.2 165 80.2 156.6V148.3H69.2V156.6C69.2 165 65.6 172 54.4 172ZM87.2 115.2V123.7H93.1C100.2 123.7 103.2 120.8 103.2 115.1C103.2 109.2 99.7 106.9 95 106.9C89.8 106.9 87.2 110.1 87.2 115.2ZM56.3 123.7H62.2V115.2C62.2 110.1 59.6 106.9 54.4 106.9C49.7 106.9 46.2 109.2 46.2 115.1C46.2 120.8 49.2 123.7 56.3 123.7ZM69.2 141.5H80.2V130.5H69.2V141.5ZM54.4 165.1C59.6 165.1 62.2 161.9 62.2 156.8V148.3H56.3C49.2 148.3 46.2 151.2 46.2 156.9C46.2 162.8 49.7 165.1 54.4 165.1ZM87.2 156.8C87.2 161.9 89.8 165.1 95 165.1C99.7 165.1 103.2 162.8 103.2 156.9C103.2 151.2 100.2 148.3 93.1 148.3H87.2V156.8Z" fill="black"/>
<path fill-rule="evenodd" clip-rule="evenodd" d="M159 77C159 68.7157 165.716 62 174 62H294C302.284 62 309 68.7157 309 77V197C309 205.284 302.284 212 294 212H174C165.716 212 159 205.284 159 197V142H189V133H159V77ZM260.939 100.906V172H251.467L215.676 117.166V172H206.252V100.906H215.676L251.613 155.887V100.906H260.939Z" fill="black"/>
<path d="M426 214.4C383.4 214.4 355.8 184.8 355.8 139C355.8 93.6 384.4 63.4 427.2 63.4C461.8 63.4 487.6 83.6 492.6 115H465.6C460.6 98 446 88 426.6 88C399.6 88 382.6 107.6 382.6 138.8C382.6 169.8 399.8 189.8 426.6 189.8C446.4 189.8 461.6 179.4 466.4 163.2H493C487.4 194 460.6 214.4 426 214.4ZM540.758 212H515.958V65.8H540.758L587.958 182.2L635.158 65.8H660.358V212H635.558V167C635.558 137.6 635.558 129 636.958 118.6L599.758 212H576.158L539.158 118.8C540.558 127.6 540.758 141.4 540.758 159.6V212ZM745.316 212H692.716V65.8H743.916C787.116 65.8 816.916 95.6 816.916 139.2C816.916 182.2 787.716 212 745.316 212ZM741.516 89.4H718.316V188.4H742.916C772.116 188.4 789.916 169.6 789.916 139.2C789.916 108.2 771.716 89.4 741.516 89.4ZM865.963 212H840.763V65.8H866.163L934.762 169.4V65.8H959.963V212H934.762L865.963 108.4V212Z" fill="black"/>
</svg>
